<svg width="13" height="12" viewBox="0 0 13 12" fill="none" xmlns="http://www.w3.org/2000/svg">
<path d="M12.9963 6C12.9963 6.47339 12.6126 6.85714 12.1392 6.85714H7.85348V11.1429C7.85348 11.6162 7.46973 12 6.99634 12V12C6.52295 12 6.13919 11.6162 6.13919 11.1429V6.85714H1.85348C1.38009 6.85714 0.996338 6.47339 0.996338 6V6C0.996338 5.52661 1.38009 5.14286 1.85348 5.14286H6.13919V0.857144C6.13919 0.383757 6.52295 0 6.99634 0V0C7.46973 0 7.85348 0.383756 7.85348 0.857143V5.14286H12.1392C12.6126 5.14286 12.9963 5.52661 12.9963 6V6Z" fill="#894083"/>
</svg>
